<?xml version="1.0" encoding="UTF-8"?>
<svg xmlns="http://www.w3.org/2000/svg" xmlns:xlink="http://www.w3.org/1999/xlink" width="32pt" height="32pt" viewBox="0 0 32 32" version="1.1">
<g id="surface10720350">
<path style=" stroke:none;fill-rule:evenodd;fill:rgb(97.254902%,0%,0%);fill-opacity:1;" d="M 14.207031 13.992188 C 14.007812 13.992188 13.675781 14.058594 13.523438 14.324219 L 11.40625 17.992188 L 12.558594 18 L 14.203125 15.152344 L 14.984375 16.496094 L 13.484375 16.492188 L 14.070312 17.488281 L 15.5625 17.496094 L 15.84375 17.992188 L 17 17.992188 L 14.875 14.3125 C 14.660156 13.976562 14.378906 13.992188 14.207031 13.992188 Z M 18.921875 13.992188 C 17.859375 13.992188 17 14.886719 17 15.992188 C 17 17.097656 17.859375 17.992188 18.921875 17.992188 L 21 18.007812 L 22 16.992188 L 18.910156 17 C 18.347656 16.992188 18.011719 16.457031 18 15.996094 C 17.984375 15.5 18.359375 14.980469 18.917969 14.972656 L 21 15 L 22 13.992188 Z M 2 14 C 0.941406 14 0 14.949219 0 16.054688 C 0 17.160156 0.941406 18 2 18 L 4 18 C 5.058594 18 6 17.105469 6 16 C 6 14.894531 5.058594 14 4 14 Z M 7 14 L 7 18 L 8 18 L 8 15 L 9.28125 15 C 9.660156 14.996094 10 15.136719 10 15.496094 C 10 15.851562 9.667969 16.003906 9.328125 16.003906 L 8 16 L 9.695312 18.007812 L 11 18 L 9.976562 16.796875 C 9.976562 16.796875 10.992188 16.5 11 15.480469 C 11.003906 14.636719 10.492188 14.007812 9.632812 14 Z M 24 14 L 23 14 L 23 17.617188 C 23 17.714844 23.035156 17.8125 23.109375 17.886719 C 23.175781 17.957031 23.273438 18 23.375 18 L 26 18.007812 L 27 17 L 24 17 Z M 28.800781 14.007812 C 27.738281 14.007812 26.878906 14.902344 26.878906 16.007812 C 26.878906 17.113281 27.738281 18.007812 28.800781 18.007812 L 31 18.007812 L 32 17.007812 L 28.785156 17.007812 C 28.542969 17.035156 28.085938 16.832031 27.972656 16.402344 L 31 16.4375 L 31.988281 15.527344 C 31.988281 15.527344 29.011719 15.542969 27.988281 15.546875 C 28.082031 15.085938 28.785156 15.007812 28.785156 15.007812 L 31 15.007812 L 32 14.007812 Z M 2 15 L 4 15 C 4.199219 15.003906 4.910156 15.304688 4.90625 15.996094 C 4.902344 16.746094 4.253906 16.996094 4 17 L 2 17 C 1.542969 16.996094 1.078125 16.46875 1.078125 16.015625 C 1.078125 15.453125 1.609375 14.992188 2 15 Z M 2 15 "/>
</g>
</svg>
